<svg width="34" height="35" viewBox="0 0 34 35" fill="none" xmlns="http://www.w3.org/2000/svg">
<g clip-path="url(#clip0_211_2046)">
<path fill-rule="evenodd" clip-rule="evenodd" d="M9.97907 3.58118C13.8233 3.58118 16.9398 6.69758 16.9398 10.5419V3.58118H23.9005C27.7447 3.58118 30.8612 6.69758 30.8612 10.5419C30.8612 14.3861 27.7447 17.5026 23.9005 17.5026C27.7447 17.5026 30.8612 20.619 30.8612 24.4633C30.8612 26.3721 30.0928 28.1015 28.8485 29.359L28.8224 29.3852L28.7993 29.4082C27.5415 30.6543 25.8109 31.424 23.9005 31.424C22.003 31.424 20.2829 30.6648 19.0273 29.4335C19.011 29.4175 18.9947 29.4014 18.9785 29.3852C18.9632 29.37 18.9481 29.3547 18.933 29.3393C17.7001 28.0834 16.9398 26.3621 16.9398 24.4633C16.9398 28.3075 13.8233 31.424 9.97907 31.424C6.13478 31.424 3.01837 28.3075 3.01837 24.4633V17.5026H9.97907C6.13478 17.5026 3.01837 14.3861 3.01837 10.5419C3.01837 6.69758 6.13478 3.58118 9.97907 3.58118ZM15.5476 10.5419C15.5476 13.6173 13.0545 16.1104 9.97907 16.1104V4.97332C13.0545 4.97332 15.5476 7.46644 15.5476 10.5419ZM29.469 24.4633C29.469 21.3878 26.9759 18.8947 23.9005 18.8947C20.825 18.8947 18.3319 21.3878 18.3319 24.4633H29.469ZM4.41051 18.8947V24.4633C4.41051 27.5387 6.90364 30.0318 9.97907 30.0318C13.0545 30.0318 15.5476 27.5387 15.5476 24.4633V18.8947H4.41051ZM18.3319 16.1104V4.97332H23.9005C26.9759 4.97332 29.469 7.46644 29.469 10.5419C29.469 13.6173 26.9759 16.1104 23.9005 16.1104H18.3319Z" fill="#263238"/>
</g>
<defs>
<clipPath id="clip0_211_2046">
<rect width="27.8428" height="27.8428" fill="white" transform="translate(3.01837 3.58118)"/>
</clipPath>
</defs>
</svg>
